<svg width="154" height="267" viewBox="0 0 154 267" fill="none" xmlns="http://www.w3.org/2000/svg">
<circle cx="34" cy="261" r="6" fill="#989898"/>
<circle cx="53" cy="261" r="6" fill="#989898"/>
<circle cx="78" cy="261" r="6" fill="#989898"/>
<circle cx="97" cy="261" r="6" fill="#989898"/>
<circle cx="116" cy="261" r="6" fill="#989898"/>
<path d="M132.247 13.6432C131.463 14.6291 132.163 15.122 133.806 14.7461L152.494 10.4675C154.14 10.0901 154.139 9.48011 152.494 9.10356L133.807 4.82474C132.162 4.44819 131.463 4.94189 132.245 5.92779L135.309 9.78538L132.247 13.6432Z" fill="#383838"/>
<path d="M22.0229 5.92765C22.807 4.94169 22.107 4.44875 20.4638 4.8247L1.77542 9.1033C0.129947 9.48065 0.131019 10.0907 1.77532 10.4672L20.463 14.7461C22.1073 15.1226 22.8063 14.6289 22.0245 13.643L18.9602 9.78543L22.0229 5.92765Z" fill="#383838"/>
</svg>
