<svg width="169" height="140" viewBox="0 0 169 140" fill="none" xmlns="http://www.w3.org/2000/svg">
<circle cx="13" cy="6" r="6" fill="#989898"/>
<circle cx="32" cy="6" r="6" fill="#989898"/>
<circle cx="51" cy="6" r="6" fill="#989898"/>
<circle cx="70" cy="6" r="6" fill="#989898"/>
<circle cx="87" cy="6" r="6" fill="#989898"/>
<path d="M145.908 129.217C145.083 131.052 145.819 131.969 147.546 131.269L167.19 123.309C168.919 122.607 168.918 121.472 167.19 120.771L147.547 112.81C145.819 112.11 145.084 113.028 145.906 114.863L149.127 122.04L145.908 129.217Z" fill="#383838"/>
<path d="M23.7769 114.862C24.6012 113.028 23.8654 112.111 22.1382 112.81L2.49495 120.771C0.765392 121.473 0.76652 122.608 2.49483 123.308L22.1373 131.269C23.8656 131.97 24.6003 131.051 23.7786 129.217L20.5577 122.04L23.7769 114.862Z" fill="#383838"/>
</svg>
