<svg width="98" height="109" viewBox="0 0 98 109" fill="none" xmlns="http://www.w3.org/2000/svg">
<path d="M43.4817 6.52499C43.4817 6.52499 43.4817 0.551828 48.854 0.551828C54.2262 0.551828 54.2262 6.52499 54.2262 6.52499V12.4982C54.2262 12.4982 54.2262 18.4713 48.854 18.4713C43.4817 18.4713 43.4817 12.4982 43.4817 12.4982V6.52499Z" fill="#FFAC33"/>
<path d="M91.8319 48.3371C91.8319 48.3371 97.2042 48.3371 97.2042 54.3103C97.2042 60.2834 91.8319 60.2834 91.8319 60.2834H86.4597C86.4597 60.2834 81.0874 60.2834 81.0874 54.3103C81.0874 48.3371 86.4597 48.3371 86.4597 48.3371H91.8319Z" fill="#FFAC33"/>
<path d="M11.2482 48.3371C11.2482 48.3371 16.6205 48.3371 16.6205 54.3103C16.6205 60.2834 11.2482 60.2834 11.2482 60.2834H5.87593C5.87593 60.2834 0.503662 60.2834 0.503662 54.3103C0.503662 48.3371 5.87593 48.3371 5.87593 48.3371H11.2482Z" fill="#FFAC33"/>
<path d="M25.0038 22.3361C25.0038 22.3361 28.802 26.5591 25.0038 30.7822C21.2056 35.0052 17.4074 30.7822 17.4074 30.7822L13.6065 26.5591C13.6065 26.5591 9.80835 22.3361 13.6065 18.1101C17.4074 13.8871 21.2056 18.1101 21.2056 18.1101L25.0038 22.3361Z" fill="#FFAC33"/>
<path d="M81.4125 85.051C81.4125 85.051 85.2107 89.274 81.4125 93.4971C77.6143 97.7201 73.8161 93.4971 73.8161 93.4971L70.0179 89.274C70.0179 89.274 66.2197 85.051 70.0179 80.828C73.8161 76.605 77.6143 80.828 77.6143 80.828L81.4125 85.051Z" fill="#FFAC33"/>
<path d="M80.3033 30.7789C80.3033 30.7789 76.5051 35.0019 72.7069 30.7789C68.9087 26.5558 72.7069 22.3328 72.7069 22.3328L76.5051 18.1098C76.5051 18.1098 80.3033 13.8868 84.1015 18.1098C87.8996 22.3328 84.1015 26.5558 84.1015 26.5558L80.3033 30.7789Z" fill="#FFAC33"/>
<path d="M23.8943 93.4971C23.8943 93.4971 20.0961 97.7201 16.2979 93.4971C12.4998 89.274 16.2979 85.051 16.2979 85.051L20.0961 80.828C20.0961 80.828 23.8943 76.605 27.6925 80.828C31.4907 85.051 27.6925 89.274 27.6925 89.274L23.8943 93.4971Z" fill="#FFAC33"/>
<path d="M43.4817 96.1224C43.4817 96.1224 43.4817 90.1492 48.854 90.1492C54.2262 90.1492 54.2262 96.1224 54.2262 96.1224V102.096C54.2262 102.096 54.2262 108.069 48.854 108.069C43.4817 108.069 43.4817 102.096 43.4817 102.096V96.1224Z" fill="#FFAC33"/>
<path d="M75.7155 54.3103C75.7155 37.8154 63.687 24.4445 48.8542 24.4445C34.0187 24.4445 21.9929 37.8154 21.9929 54.3103C21.9929 70.8022 34.0187 84.1761 48.8542 84.1761C63.687 84.1761 75.7155 70.8022 75.7155 54.3103Z" fill="#FFAC33"/>
</svg>
