<svg width="98" height="59" viewBox="0 0 98 59" fill="none" xmlns="http://www.w3.org/2000/svg">
<path d="M87.4974 35.4298C87.1896 29.9767 85.0221 24.8587 81.4361 21.1171C77.8502 17.3755 73.115 15.2915 68.1942 15.289C67.2888 15.289 66.3846 15.3585 65.4878 15.497C63.4476 11.1277 60.3673 7.46338 56.582 4.90259C52.7968 2.3418 48.4515 0.982615 44.019 0.9729C43.7703 0.9729 43.502 0.97469 43.3305 0.990796C38.4479 1.12771 33.7186 2.91154 29.7712 6.10511C25.8238 9.29869 22.8454 13.7507 21.232 18.8693C17.8528 18.939 14.6331 20.4772 12.2641 23.1537C9.89518 25.8302 8.56602 29.4315 8.56209 33.1842C8.56235 33.7319 8.59124 34.2793 8.64863 34.8233C6.21479 36.1566 4.16356 38.2164 2.72492 40.7716C1.28629 43.3268 0.517132 46.2764 0.503697 49.2898C0.49804 52.1252 1.1763 54.9106 2.46801 57.3565C2.61028 57.6249 2.8132 57.8473 3.05667 58.0017C3.30014 58.1562 3.57573 58.2374 3.85615 58.2373H22.0357C22.4196 58.2373 22.791 58.0852 23.0828 57.8082C23.3747 57.5313 23.5679 57.1477 23.6277 56.7266C24.0929 53.4661 25.5905 50.4968 27.8513 48.3529C30.1121 46.209 32.9876 45.0311 35.9608 45.0311C38.9339 45.0311 41.8095 46.209 44.0702 48.3529C46.331 50.4968 47.8287 53.4661 48.2938 56.7266C48.3536 57.1477 48.5469 57.5313 48.8387 57.8082C49.1306 58.0852 49.5019 58.2373 49.8858 58.2373H93.5623C93.8215 58.2375 94.077 58.1681 94.3069 58.0351C94.5368 57.9022 94.7344 57.7095 94.8829 57.4736C96.3976 55.0763 97.2084 52.2181 97.2044 49.2898C97.1937 46.1131 96.2353 43.03 94.479 40.5223C92.7227 38.0146 90.2676 36.2238 87.4974 35.4298Z" fill="#9CD5F2"/>
</svg>
