<svg width="60" height="38" viewBox="0 0 60 38" fill="none" xmlns="http://www.w3.org/2000/svg">
<path d="M49.0894 19.5177C49.0529 18.7838 48.9816 18.0525 48.8757 17.3264C48.1637 12.4983 45.8696 8.10134 42.4062 4.92672C38.9428 1.7521 34.5374 0.00821564 29.9828 0.00885027C25.4281 0.0094849 21.0232 1.75459 17.5605 4.93018C14.0979 8.10577 11.8049 12.5034 11.094 17.3317C10.9889 18.0561 10.9179 18.7856 10.8813 19.5177C7.85714 20.69 5.24314 22.8343 3.39528 25.6584C1.54743 28.4826 0.555542 31.8494 0.554688 35.3003C0.554688 35.8588 0.761403 36.3944 1.12936 36.7893C1.49731 37.1842 1.99636 37.406 2.51673 37.406H57.454C57.9743 37.406 58.4734 37.1842 58.8413 36.7893C59.2093 36.3944 59.416 35.8588 59.416 35.3003C59.4151 31.8494 58.4233 28.4826 56.5754 25.6584C54.7276 22.8343 52.1136 20.69 49.0894 19.5177Z" fill="#B2EBF2"/>
</svg>
