<svg width="56" height="38" viewBox="0 0 56 38" fill="none" xmlns="http://www.w3.org/2000/svg">
<path d="M50.3795 21.7981C50.3952 21.5653 50.403 21.3335 50.4032 21.1026C50.4024 18.6459 49.5234 16.2819 47.9452 14.4919C46.367 12.7019 44.2082 11.6204 41.9083 11.4677C40.7907 8.32947 38.8527 5.59858 36.3241 3.59854C33.7954 1.59851 30.7819 0.413168 27.6407 0.182952C24.4996 -0.0472648 21.3623 0.687295 18.6007 2.2996C15.8391 3.91191 13.5688 6.33438 12.0589 9.28002C11.5741 9.22049 11.0864 9.19012 10.5984 9.18903C8.64546 9.18224 6.7155 9.63781 4.94781 10.5229C3.18012 11.4079 1.6188 12.7004 0.376567 14.3069C0.174846 14.5681 0.0495545 14.8867 0.0162613 15.2232C-0.0170319 15.5597 0.0431416 15.8992 0.189302 16.1995C0.335463 16.4998 0.56117 16.7477 0.838381 16.9124C1.11559 17.0772 1.43209 17.1514 1.74854 17.126C1.91939 17.1125 2.10206 17.1133 2.27437 17.1142C6.32038 17.1232 10.2787 18.3718 13.6779 20.7113C17.0772 23.0509 19.774 26.3827 21.4474 30.3101C21.5994 30.6674 21.861 30.9588 22.1891 31.1364C22.5172 31.314 22.8923 31.3671 23.2526 31.2871C26.0872 30.6599 29.0276 30.8529 31.7687 31.8459C34.5098 32.839 36.9518 34.5959 38.8411 36.9345C38.9931 37.1241 39.1819 37.2763 39.3943 37.3806C39.6068 37.4849 39.838 37.5389 40.0719 37.5388H52.9463C53.229 37.5388 53.5069 37.4599 53.7521 37.31C53.9974 37.16 54.2016 36.9442 54.3444 36.684C55.2413 35.0467 55.7145 33.1849 55.7154 31.2888C55.7074 29.3418 55.2077 27.433 54.2688 25.763C53.3299 24.0929 51.9864 22.7233 50.3795 21.7981Z" fill="#7CC9F2"/>
</svg>
