<svg width="30" height="33" viewBox="0 0 30 33" fill="none" xmlns="http://www.w3.org/2000/svg">
<path d="M0.0219727 15.4218C0.0219727 13.6129 0.533069 12.0085 1.55526 10.5928C2.52603 9.21854 3.89498 8.25739 5.43108 7.87155C5.87119 5.7323 6.87919 3.97057 8.42667 2.58635C9.97416 1.20214 11.7488 0.525757 13.7506 0.525757C15.7098 0.525757 17.4419 1.20214 18.9751 2.53917C20.5084 3.87619 21.5022 5.60647 21.9565 7.71425H22.4108C23.6744 7.71425 24.8528 8.06031 25.9317 8.73669C27.0107 9.41306 27.8767 10.3568 28.5014 11.5366C29.1261 12.7163 29.4526 14.0219 29.4526 15.4218C29.4526 16.806 29.1545 18.0802 28.5582 19.2599C27.9619 20.4396 27.1385 21.3834 26.1021 22.0912C25.0657 22.7991 23.9299 23.1766 22.6948 23.2081C22.5102 23.2081 22.4108 23.1137 22.4108 22.9406V20.8486C22.4108 20.6598 22.5102 20.5655 22.6948 20.5655C23.9016 20.5025 24.9379 19.9677 25.7898 18.961C26.6416 17.9543 27.0675 16.7746 27.0675 15.4061C27.0675 14.0376 26.599 12.8579 25.6762 11.8512C24.7534 10.8445 23.6602 10.3411 22.3967 10.3411H20.1109C19.9405 10.3411 19.8554 10.2467 19.8554 10.0737L19.7418 9.16139C19.6059 7.51133 18.8986 5.98364 17.7684 4.89863C16.6042 3.75036 15.2697 3.18408 13.7222 3.18408C12.1747 3.18408 10.8118 3.75036 9.67602 4.89863C8.55489 5.98585 7.86194 7.51571 7.74521 9.16139L7.64583 9.99507C7.64583 10.1838 7.54645 10.2939 7.36189 10.2939L6.60944 10.3411C5.43108 10.4984 4.43728 11.0647 3.62804 12.0242C2.81881 12.9837 2.42129 14.1163 2.42129 15.4218C2.42129 16.7903 2.8472 17.97 3.69903 18.9768C4.55086 19.9835 5.58725 20.5183 6.794 20.5812C6.95017 20.5812 7.03536 20.6756 7.03536 20.8643V22.9564C7.03536 23.1294 6.95017 23.2238 6.794 23.2238C4.89159 23.1294 3.28731 22.3272 1.96698 20.8171C0.646647 19.3071 0.0219727 17.5139 0.0219727 15.4218ZM7.61744 25.945C7.61744 25.8821 7.63163 25.772 7.67423 25.6304L9.98836 16.5544C10.0795 16.2281 10.2815 15.9539 10.5517 15.7895C10.8219 15.6252 11.1391 15.5836 11.4365 15.6735C11.7772 15.7364 12.0327 15.9409 12.2031 16.2555C12.3735 16.5701 12.4161 16.9162 12.3167 17.3094L10.0026 26.3225C9.83219 26.9989 9.43467 27.3292 8.83839 27.3292C8.7816 27.3292 8.73901 27.3135 8.68222 27.2978C8.59704 27.2663 8.55445 27.2506 8.54025 27.2506C8.25881 27.1778 8.01127 26.9931 7.84459 26.7315C7.69962 26.5004 7.6205 26.2265 7.61744 25.945ZM11.3371 30.3651L14.8012 16.5701C14.858 16.2712 14.9999 16.0353 15.2271 15.878C15.4543 15.7207 15.6814 15.642 15.9228 15.642C16.0505 15.642 16.1783 15.6578 16.3061 15.6892C16.6184 15.7836 16.8456 15.9881 17.0017 16.3027C17.1579 16.6173 17.1863 16.9476 17.1011 17.3094L13.6512 31.1201C13.5944 31.3875 13.4667 31.6077 13.2395 31.7965C13.0123 31.9853 12.7852 32.0796 12.5154 32.0796C12.3877 32.0796 12.2599 32.0482 12.1605 32.001C11.8766 31.9223 11.6352 31.7178 11.4223 31.3875C11.2661 31.1044 11.2377 30.7741 11.3371 30.3651ZM17.2005 25.9765C17.2005 25.9136 17.2147 25.8035 17.2573 25.6147L19.5714 16.5386C19.6409 16.2624 19.7906 16.0191 19.9973 15.8465C20.2103 15.6892 20.4233 15.6106 20.6504 15.6106C20.764 15.6106 20.8918 15.6263 21.0195 15.6578C21.3177 15.7522 21.5306 15.9095 21.6726 16.1454C21.8146 16.3813 21.8856 16.633 21.8856 16.8847C21.8856 16.9319 21.8714 17.0105 21.8572 17.1049C21.843 17.1993 21.8288 17.2622 21.8288 17.2937L19.5146 26.3068C19.4578 26.6057 19.3301 26.8574 19.1171 27.0304C18.9042 27.2034 18.6628 27.2978 18.3931 27.2978L18.0523 27.2191C17.7875 27.1429 17.5559 26.9644 17.3993 26.7158C17.2736 26.494 17.2049 26.2384 17.2005 25.9765Z" fill="white"/>
</svg>
