<svg width="28" height="25" viewBox="0 0 28 25" fill="none" xmlns="http://www.w3.org/2000/svg">
<path d="M20.4744 19.9747C20.4744 21.1018 20.0789 22.1827 19.3749 22.9797C18.6709 23.7766 17.7161 24.2244 16.7205 24.2244C15.1133 24.2244 13.559 23.0385 13.0252 21.4063C12.944 21.1435 12.9571 20.8552 13.0618 20.6033C13.1665 20.3513 13.3543 20.156 13.5849 20.0592C13.8154 19.9625 14.0704 19.972 14.2948 20.0859C14.5192 20.1997 14.6952 20.4087 14.7849 20.6679C15.0476 21.4714 15.8993 22.0995 16.7205 22.0995C17.2183 22.0995 17.6957 21.8757 18.0477 21.4772C18.3997 21.0787 18.5974 20.5382 18.5974 19.9747C18.5974 19.4112 18.3997 18.8707 18.0477 18.4722C17.6957 18.0737 17.2183 17.8499 16.7205 17.8499H3.58179C3.33289 17.8499 3.09419 17.7379 2.91819 17.5387C2.74219 17.3394 2.64331 17.0692 2.64331 16.7874C2.64331 16.5057 2.74219 16.2354 2.91819 16.0362C3.09419 15.837 3.33289 15.725 3.58179 15.725H16.7205C17.7161 15.725 18.6709 16.1728 19.3749 16.9697C20.0789 17.7667 20.4744 18.8476 20.4744 19.9747ZM12.9666 9.3505C13.9622 9.3505 14.917 8.90276 15.621 8.10579C16.325 7.30882 16.7205 6.2279 16.7205 5.10082C16.7205 3.97373 16.325 2.89281 15.621 2.09584C14.917 1.29887 13.9622 0.851135 12.9666 0.851135C11.3594 0.851135 9.80507 2.03706 9.27131 3.6692C9.19009 3.93197 9.20322 4.22033 9.30788 4.47225C9.41254 4.72417 9.60037 4.91952 9.83095 5.01628C10.0615 5.11304 10.3165 5.10347 10.5409 4.98964C10.7653 4.8758 10.9413 4.6668 11.031 4.40759C11.2937 3.60413 12.1454 2.97598 12.9666 2.97598C13.4644 2.97598 13.9418 3.19984 14.2938 3.59833C14.6458 3.99681 14.8435 4.53727 14.8435 5.10082C14.8435 5.66436 14.6458 6.20482 14.2938 6.6033C13.9418 7.00179 13.4644 7.22566 12.9666 7.22566H1.70483C1.45594 7.22566 1.21723 7.33759 1.04123 7.53683C0.865232 7.73607 0.766357 8.00631 0.766357 8.28808C0.766357 8.56985 0.865232 8.84008 1.04123 9.03932C1.21723 9.23856 1.45594 9.3505 1.70483 9.3505H12.9666ZM23.2898 5.10082C21.6827 5.10082 20.1283 6.28674 19.5946 7.91889C19.5133 8.18165 19.5265 8.47002 19.6311 8.72194C19.7358 8.97386 19.9236 9.16921 20.1542 9.26596C20.3848 9.36272 20.6397 9.35315 20.8641 9.23932C21.0885 9.12549 21.2645 8.91648 21.3542 8.65727C21.617 7.85381 22.4687 7.22566 23.2898 7.22566C23.7876 7.22566 24.265 7.44952 24.617 7.84801C24.969 8.24649 25.1668 8.78695 25.1668 9.3505C25.1668 9.91404 24.969 10.4545 24.617 10.853C24.265 11.2515 23.7876 11.4753 23.2898 11.4753H2.64331C2.39441 11.4753 2.15571 11.5873 1.97971 11.7865C1.80371 11.9858 1.70483 12.256 1.70483 12.5378C1.70483 12.8195 1.80371 13.0898 1.97971 13.289C2.15571 13.4882 2.39441 13.6002 2.64331 13.6002H23.2898C24.2854 13.6002 25.2402 13.1524 25.9442 12.3555C26.6482 11.5585 27.0437 10.4776 27.0437 9.3505C27.0437 8.22341 26.6482 7.14249 25.9442 6.34552C25.2402 5.54855 24.2854 5.10082 23.2898 5.10082Z" fill="white"/>
</svg>
